<svg xmlns="http://www.w3.org/2000/svg" fill-rule="evenodd" viewBox="0 0 100 100">
    <path d="M76.914 11.535a1.515 1.515 0 0 0-1.692.422c-.02.022-2.032 2.29-10.166 6.595-8.255 4.373-31.344 18.606-32.401 19.261-7.42 5.245-11.391 14.031-10.362 22.931.751 6.475 3.968 12.065 8.589 15.976l-6.486 9.513a1.5 1.5 0 1 0 2.479 1.69l6.416-9.409c3.921 2.578 8.577 4.078 13.509 4.078.945 0 1.899-.054 2.86-.165 8.714-1.009 16.256-6.686 19.759-14.847.075-.079.153-.176.214-.287 4.342-7.05 7.176-26.153 7.369-31.488.169-5.083.862-22.647.869-22.824a1.5 1.5 0 0 0-.957-1.446zM25.273 60.4c-.903-7.809 2.589-15.524 9.035-20.084.239-.147 23.983-14.785 32.152-19.112a103.877 103.877 0 0 0 3.658-2.028L32.572 74.242A21.604 21.604 0 0 1 25.273 60.4zm41.892 5.173a1.9 1.9 0 0 0-.18.196c-.087.109-.158.23-.212.36-3.029 7.317-9.719 12.421-17.46 13.316a21.585 21.585 0 0 1-14.345-3.393l39.71-58.238c-.221 5.64-.563 14.508-.675 17.886-.214 5.857-3.067 23.465-6.838 29.873z"/>
</svg>
