<svg xmlns="http://www.w3.org/2000/svg" fill-rule="evenodd" viewBox="0 0 100 100">
    <path d="M83.873 4.861H16.131c-6.07 0-11.009 4.939-11.009 11.009v46.622c0 6.069 4.938 11.007 11.009 11.007h24.068v18.64H21.544a1.5 1.5 0 1 0 0 3h56.915a1.5 1.5 0 1 0 0-3H59.804v-18.64h24.068c6.068 0 11.005-4.938 11.005-11.007V15.87c.001-6.07-4.936-11.009-11.004-11.009zm-67.742 3h67.742c4.414 0 8.005 3.593 8.005 8.009v35.35H8.123V15.87c0-4.417 3.592-8.009 8.008-8.009zm40.674 84.278H43.2v-18.64h13.605v18.64zm27.068-21.64H16.132c-4.416 0-8.009-3.592-8.009-8.007v-8.271h83.755v8.271c0 4.415-3.591 8.007-8.005 8.007z"/>
    <path d="M50.002 57.055c-3.097 0-5.616 2.518-5.616 5.612s2.519 5.612 5.616 5.612a5.618 5.618 0 0 0 5.612-5.612 5.618 5.618 0 0 0-5.612-5.612zm0 8.224c-1.442 0-2.616-1.172-2.616-2.612s1.173-2.612 2.616-2.612c1.44 0 2.612 1.172 2.612 2.612s-1.172 2.612-2.612 2.612z"/>
</svg>
