<svg xmlns="http://www.w3.org/2000/svg" fill-rule="evenodd" viewBox="0 0 100 100">
    <path d="M50.923 74.959h-31.52V28.364L46.161 5.088 72.277 27.41v29.255a1.5 1.5 0 1 0 3 0V29.974l9.761 8.343a1.501 1.501 0 0 0 1.949-2.281L47.127 1.968a1.5 1.5 0 0 0-1.959.008L6.141 35.924a1.5 1.5 0 1 0 1.969 2.263l8.293-7.214v45.485a1.5 1.5 0 0 0 1.5 1.5h33.02a1.5 1.5 0 1 0 0-2.999z"/>
    <path d="M92.467 90.794 58.178 51.861c.419-4.089-.666-7.397-3.196-9.577-3.077-2.651-5.906-2.147-10.186-1.387-.561.1-1.155.206-1.789.312-1.615.271-2.977-1.321-4.457-3.271-1.048-1.381-1.954-2.572-3.369-2.2-1.378.364-1.699 1.936-1.892 3.38-.853 6.396-.445 15.282 3.508 19.277 3.234 3.28 7.7 3.74 9.95 3.74.277 0 .505-.008.708-.017l39.301 34.388c1.217 1.201 2.726 1.889 4.144 1.888h.034c.977-.007 1.858-.361 2.483-.997 1.579-1.61 1.159-4.502-.95-6.603zM36.221 39.832c1.428 1.88 3.794 4.922 7.279 4.336.645-.107 1.25-.215 1.82-.316 4.239-.755 5.803-.933 7.703.706 1.796 1.548 2.515 3.941 2.166 7.101l-7.858 7.46c-1.385.06-5.614-.007-8.4-2.831-2.917-2.951-3.447-10.527-2.71-16.456zm20.305 14.693 3.118 3.54-5.725 5.723-3.721-3.256 6.328-6.007zm34.75 40.77c-.062.062-.207.093-.375.098-.464 0-1.272-.268-2.104-1.084L56.182 65.768l5.449-5.447L90.25 92.815a1.4 1.4 0 0 0 .075.079c1.028 1.01 1.202 2.146.951 2.401z"/>
</svg>
