<svg xmlns="http://www.w3.org/2000/svg" fill-rule="evenodd" viewBox="0 0 100 100">
    <path d="M87.25 61.525H38.475V12.751a1.5 1.5 0 0 0-1.5-1.5H12.75a1.5 1.5 0 0 0-1.5 1.5v74.5a1.5 1.5 0 0 0 1.5 1.5h74.5a1.5 1.5 0 0 0 1.5-1.5V63.025a1.5 1.5 0 0 0-1.5-1.5zM35.475 14.251v47.274H14.25V51.501h7.279a1.5 1.5 0 1 0 0-3H14.25v-9.72h13.342a1.5 1.5 0 1 0 0-3H14.25v-9.72h7.279a1.5 1.5 0 1 0 0-3H14.25v-8.81h21.225zm50.275 71.5h-71.5V64.525h71.5v21.226z"/>
    <path d="M75.134 81.484c3.5 0 6.347-2.848 6.347-6.348s-2.848-6.347-6.347-6.347a6.355 6.355 0 0 0-6.348 6.347c0 3.5 2.848 6.348 6.348 6.348zm0-9.695a3.35 3.35 0 0 1 3.347 3.347 3.352 3.352 0 0 1-3.347 3.348 3.352 3.352 0 0 1-3.348-3.348 3.352 3.352 0 0 1 3.348-3.347z"/>
</svg>
