<svg xmlns="http://www.w3.org/2000/svg" fill-rule="evenodd" viewBox="0 0 100 100">
    <path d="M80.599 56.214a73.545 73.545 0 0 0-.27-3.569c-.75-7.431-3.041-17.866-9.694-25.375-5.8-6.547-13.909-9.866-24.103-9.866-14.916 0-26.385 9.451-28.13 12.197C9.78 36.906 4.881 47.424 4.881 58.822l.047.374c.083.321 2.123 7.903 10.929 11.882 12.292 5.557 27.918 11.519 44.604 11.518 3.31 0 6.665-.235 10.04-.754 21.819-3.355 24.617-8.4 24.617-12.421 0-.894-.003-3.603-14.519-13.207zM68.383 29.252c10.383 11.71 9.486 31.693 9.11 36.41l-17.479 4.37c.192-4.176.467-13.987-.6-22.917-1.293-10.812-4.65-22.971-18.183-26.286a33.93 33.93 0 0 1 5.302-.424c9.293-.001 16.644 2.976 21.85 8.847zm-34.867-6.303c14.008.043 20.869 7.392 22.919 24.522.996 8.33.777 17.699.597 22.006l-5.436-3.078c.45-4.675 1.669-23.929-7.559-33.028-5.833-5.751-11.99-7.464-16.839-7.241a39.729 39.729 0 0 1 6.318-3.181zm-12.749 8.595c.114-.083.223-.17.321-.255.289-.232.575-.468.873-.692 3.423-2.227 12.009-2.939 19.97 4.91 7.932 7.822 7.126 25.188 6.712 30.167-3.924-.167-15.5-.948-24.934-4.462-6.283-2.34-11.17-6.349-14.531-11.906 1.911-6.91 5.896-13.083 11.589-17.762zm49.278 47.332c-19.609 3.016-38.598-4.044-52.952-10.533-6.871-3.105-8.886-8.684-9.211-9.732a36.04 36.04 0 0 1 .424-5.228c4.461 5.977 10.139 9.069 14.355 10.64 11.048 4.115 24.432 4.626 26.928 4.687l8.598 4.869 22.064-5.516.125-1.024c.021-.171.346-2.957.328-7.14 7.163 4.876 11.153 8.461 11.414 9.521 0 4.023-7.426 7.204-22.073 9.456z"/>
</svg>
