<svg xmlns="http://www.w3.org/2000/svg" fill-rule="evenodd" viewBox="0 0 100 100">
    <path d="M73.5 39c0-5.42-11.65-8.25-23.17-8.25S27.17 33.53 27.17 39c0 5.21 10.77 8 21.83 8.24V82.5a1.5 1.5 0 0 0 3 0V47.18c10.94-.26 21.5-3.07 21.5-8.18Zm-43.33 0c0-1.78 7.12-5.25 20.17-5.25S70.5 37.17 70.5 39s-7.12 5.25-20.17 5.25S30.17 40.74 30.17 39Zm-.82 17H15c-.14-5.44-.86-24-4.14-30.2a1.5 1.5 0 1 0-2.65 1.4C11.62 33.71 12 57.28 12 57.52v24a1.5 1.5 0 0 0 3 0V69h17v12.5a1.5 1.5 0 0 0 3 0V61.65A5.66 5.66 0 0 0 29.35 56ZM15 66v-7h14.35A2.65 2.65 0 0 1 32 61.65V66Zm77.2-40.83a1.5 1.5 0 0 0-2 .62C86.89 32 86.17 50.56 86 56H71.65A5.66 5.66 0 0 0 66 61.65V81.5a1.5 1.5 0 0 0 3 0V69h17v12.5a1.5 1.5 0 0 0 3 0v-24c0-.24.38-23.81 3.83-30.32a1.5 1.5 0 0 0-.63-2.01ZM69 66v-4.35A2.65 2.65 0 0 1 71.65 59H86v7Z"/>
</svg>
