<svg xmlns="http://www.w3.org/2000/svg" fill-rule="evenodd" viewBox="0 0 100 100">
    <path d="M65.827 41.985c.405-.268.674-.728.674-1.251V26.795a1.5 1.5 0 0 0-1.5-1.5h-7.309L54.88 9.77C54.689 7.377 53.187 3 48.778 3c-4.133 0-5.671 4.377-5.917 6.751l-2.816 15.544H32a1.5 1.5 0 0 0-1.5 1.5v13.939c0 .795.62 1.438 1.401 1.49C30.109 44.55 29 47.542 29 50.402V94.5a1.5 1.5 0 0 0 1.5 1.5h37a1.5 1.5 0 0 0 1.5-1.5V50.402c.001-2.969-1.213-6.037-3.173-8.417zM45.824 10.228c.008-.039.014-.082.018-.121.004-.041.445-4.107 2.938-4.107 2.776 0 3.103 3.901 3.115 4.062.003.056.01.111.021.166l2.729 15.068h-11.55l2.729-15.068zM33.501 28.295h30v10.939h-30V28.295zM66.001 93h-34V50.402c0-3.009 1.656-6.347 4.028-8.116.021-.016.037-.035.057-.052h25.701c2.529 1.874 4.214 5.094 4.214 8.168V93z"/>
    <path d="M49.887 50.264a1.5 1.5 0 0 0-2.778 0c-.285.698-6.988 17.165-8.008 23.241-.368 2.189.271 4.39 1.799 6.196 1.823 2.156 4.734 3.495 7.598 3.495s5.776-1.339 7.601-3.496c1.528-1.806 2.167-4.006 1.8-6.194-1.019-6.076-7.727-22.545-8.012-23.242zm3.922 27.498c-1.271 1.501-3.305 2.434-5.311 2.434-2.005 0-4.038-.932-5.308-2.432-.671-.793-1.411-2.089-1.13-3.761v-.001c.691-4.123 4.381-13.871 6.438-19.118 2.059 5.247 5.75 14.995 6.441 19.119.282 1.67-.459 2.966-1.13 3.759z"/>
</svg>
