<svg xmlns="http://www.w3.org/2000/svg" fill-rule="evenodd" viewBox="0 0 100 100">
    <path d="M94.5 38.25h-12c-.176 0-.343.036-.5.092V25.75a1.5 1.5 0 0 0-1.5-1.5h-61a1.5 1.5 0 0 0-1.5 1.5v12.5H6.5a1.5 1.5 0 0 0-1.5 1.5v32a1.5 1.5 0 0 0 1.5 1.5H24v8.5a1.5 1.5 0 1 0 3 0v-8.5h45v8.5a1.5 1.5 0 0 0 3 0v-8.5h19.5a1.5 1.5 0 0 0 1.5-1.5v-32a1.5 1.5 0 0 0-1.5-1.5zm-15.5-11v29H52v-29h27zm-58 0h28v29H21v-29zm72 43H8v-29h10v16.5a1.5 1.5 0 0 0 1.5 1.5h61a1.5 1.5 0 0 0 1.5-1.5V41.158c.157.056.324.092.5.092H93v29z"/>
</svg>
