<svg xmlns="http://www.w3.org/2000/svg" fill-rule="evenodd" viewBox="0 0 100 100">
    <path d="M91.5 56H89c-.47-15.39-9.27-28.26-22.39-34H83v2.5a1.5 1.5 0 0 0 3 0v-8a1.5 1.5 0 0 0-3 0V19H56v-2.5a1.5 1.5 0 0 0-1.5-1.5h-8a1.5 1.5 0 0 0-1.5 1.5V19H18v-2.5a1.5 1.5 0 0 0-3 0v8a1.5 1.5 0 0 0 3 0V22h16.34A38.4 38.4 0 0 0 11 57H8.5A1.5 1.5 0 0 0 7 58.5v8A1.5 1.5 0 0 0 8.5 68h8a1.5 1.5 0 0 0 1.5-1.5v-8a1.5 1.5 0 0 0-1.5-1.5H14a35.57 35.57 0 0 1 31-34.86v2.36a1.5 1.5 0 0 0 1.5 1.5h2.58L33.51 65.51a1.5 1.5 0 0 0 0 1.07l5.58 15.19-.09 9.72A1.5 1.5 0 0 0 40.5 93h19a1.5 1.5 0 0 0 1.5-1.5v-9.68l6.81-15.15a1.5 1.5 0 0 0 0-1.17L51.92 26h2.58a1.5 1.5 0 0 0 1.5-1.5v-2.36C73 24.47 85.39 38.44 86 56h-2.5a1.5 1.5 0 0 0-1.5 1.5v8a1.5 1.5 0 0 0 1.5 1.5h8a1.5 1.5 0 0 0 1.5-1.5v-8a1.5 1.5 0 0 0-1.5-1.5ZM15 65h-5v-5h5Zm27 25 .06-7H58v7Zm16.53-10h-16.9l-5.12-13.92L49 34.39V61.5a1.5 1.5 0 0 0 3 0V34.24L64.81 66ZM53 23h-5v-5h5Zm37 41h-5v-5h5Z"/>
</svg>
