<svg xmlns="http://www.w3.org/2000/svg" fill-rule="evenodd" viewBox="0 0 100 100">
    <path d="M82.5 9.25h-65a1.5 1.5 0 0 0-1.5 1.5v78a1.5 1.5 0 0 0 1.5 1.5h65a1.5 1.5 0 0 0 1.5-1.5v-78a1.5 1.5 0 0 0-1.5-1.5zm-1.5 78H19v-75h62v75z"/>
    <path d="M45.5 33.25h24a1.5 1.5 0 1 0 0-3h-24a1.5 1.5 0 1 0 0 3zm0 18h24a1.5 1.5 0 1 0 0-3h-24a1.5 1.5 0 1 0 0 3zm0 18h24a1.5 1.5 0 0 0 0-3h-24a1.5 1.5 0 1 0 0 3zM30.144 37.106a5.456 5.456 0 0 0 4.064 1.097c1.457-.189 2.753-.934 3.649-2.097s1.287-2.607 1.097-4.063a5.464 5.464 0 0 0-2.097-3.649 5.459 5.459 0 0 0-4.063-1.097c-1.457.189-2.753.934-3.649 2.097S27.857 32 28.046 33.457a5.46 5.46 0 0 0 2.098 3.649zm1.376-5.881a2.484 2.484 0 0 1 1.986-.975c.548 0 1.079.18 1.52.52.529.407.868.997.954 1.659a2.485 2.485 0 0 1-.499 1.847 2.484 2.484 0 0 1-1.659.954 2.483 2.483 0 0 1-1.847-.499 2.484 2.484 0 0 1-.954-1.659 2.483 2.483 0 0 1 .499-1.847zM33.5 55.25c3.033 0 5.5-2.468 5.5-5.5 0-3.033-2.467-5.5-5.5-5.5s-5.5 2.467-5.5 5.5c0 3.032 2.467 5.5 5.5 5.5zm0-8c1.378 0 2.5 1.122 2.5 2.5 0 1.379-1.122 2.5-2.5 2.5s-2.5-1.121-2.5-2.5c0-1.378 1.122-2.5 2.5-2.5zm0 26c3.033 0 5.5-2.468 5.5-5.5s-2.467-5.5-5.5-5.5-5.5 2.468-5.5 5.5 2.467 5.5 5.5 5.5zm0-8c1.378 0 2.5 1.121 2.5 2.5s-1.122 2.5-2.5 2.5-2.5-1.121-2.5-2.5 1.122-2.5 2.5-2.5z"/>
</svg>
