<?xml version="1.0" encoding="iso-8859-1"?>
<!-- Generator: Adobe Illustrator 25.0.0, SVG Export Plug-In . SVG Version: 6.00 Build 0)  -->
<svg version="1.1" xmlns="http://www.w3.org/2000/svg" xmlns:xlink="http://www.w3.org/1999/xlink" x="0px" y="0px"
	 viewBox="0 0 48 48" style="enable-background:new 0 0 48 48;" xml:space="preserve">
<g id="&#x421;&#x43B;&#x43E;&#x439;_1">
	<path d="M20,23c1,0,4-1.618,4-5.618C24,11.163,18.494,10,12.292,10C11.12,10,7.547,10.002,5,10.001c-1.657-0.001-3,1.343-3,3V35
		c0,1.657,1.343,3,3,3l11.8,0c4.419,0,8.165-3.496,8.2-7.915C25.047,24.009,20,23,20,23z M8,15h7c1.657,0,3,1.343,3,3s-1.343,3-3,3
		H8V15z M15.5,33H8v-7h7.5c1.933,0,3.5,1.567,3.5,3.5S17.433,33,15.5,33z"/>
	<path d="M45.51,29c0.829,0,1.5-0.671,1.501-1.5v0c0-5.799-4.011-10.5-10-10.5c-5.523,0-10,4.701-10,10.5
		c0,5.799,4.477,10.5,10,10.5c4.887,0,7.602-2.286,8.928-5.643c0.256-0.647-0.246-1.348-0.942-1.348h-2.401
		c-0.365,0-0.688,0.207-0.877,0.52C40.805,33.039,39.41,34,37.532,34c-2.812,0-4.86-2.135-5.382-5h10.722H45.51z M37.011,21
		c2.077,0,4.09,1.656,4.658,4h-9.273C33.149,22.651,34.931,21,37.011,21z"/>
	<path d="M41.5,15h-8c-0.828,0-1.5-0.672-1.5-1.5v0c0-0.828,0.672-1.5,1.5-1.5h8c0.828,0,1.5,0.672,1.5,1.5v0
		C43,14.328,42.328,15,41.5,15z"/>
</g>
<g id="&#x421;&#x43B;&#x43E;&#x439;_2">
</g>
<g id="&#x421;&#x43B;&#x43E;&#x439;_3">
</g>
<g id="&#x421;&#x43B;&#x43E;&#x439;_4">
</g>
<g id="&#x421;&#x43B;&#x43E;&#x439;_5">
</g>
<g id="&#x421;&#x43B;&#x43E;&#x439;_6">
</g>
<g id="&#x421;&#x43B;&#x43E;&#x439;_7">
</g>
</svg>